PathFileType  4	(X/Y/Z) C:\Users\antoi\Documents\MyRepositories\mobilecap\ResultsAnalysis
DataRate	CameraRate	NumFrames	NumMarkers	Units	OrigDataRate	OrigDataStartFrame	OrigNumFrames
100.0	100.0	6	51	mm	100.0	140	278
Frame#	Time	r_knee			r_shank_antsup			r_ankle			r_calc			r_5meta			r_toe			L_knee			L_shank_antsup			L_ankle			L_calc			L_5meta			L_toe			r_sh2			r_sh3			r_sh4			L_sh2			L_sh3			r_thigh1			r_thigh2			r_thigh3			r_thigh4			r_thigh5			L_thigh1			L_thigh2			L_thigh3			L_thigh4			r.ASIS			r.PSIS			L.ASIS			L.PSIS			C7			R_Shoulder			L_Shoulder			R_Sternum			L_Sternum			R_humerus			R_elbow_med			R_elbow_lat			R_forearm			R_wrist_radius			R_wrist_ulna			L_humerus			L_elbow_med			L_elbow_lat			L_forearm			L_wrist_radius			L_wrist_ulna			R_HJC			L_HJC			R_HJC_reg			L_HJC_reg			
		X1	Y1	Z1	X2	Y2	Z2	X3	Y3	Z3	X4	Y4	Z4	X5	Y5	Z5	X6	Y6	Z6	X7	Y7	Z7	X8	Y8	Z8	X9	Y9	Z9	X10	Y10	Z10	X11	Y11	Z11	X12	Y12	Z12	X13	Y13	Z13	X14	Y14	Z14	X15	Y15	Z15	X16	Y16	Z16	X17	Y17	Z17	X18	Y18	Z18	X19	Y19	Z19	X20	Y20	Z20	X21	Y21	Z21	X22	Y22	Z22	X23	Y23	Z23	X24	Y24	Z24	X25	Y25	Z25	X26	Y26	Z26	X27	Y27	Z27	X28	Y28	Z28	X29	Y29	Z29	X30	Y30	Z30	X31	Y31	Z31	X32	Y32	Z32	X33	Y33	Z33	X34	Y34	Z34	X35	Y35	Z35	X36	Y36	Z36	X37	Y37	Z37	X38	Y38	Z38	X39	Y39	Z39	X40	Y40	Z40	X41	Y41	Z41	X42	Y42	Z42	X43	Y43	Z43	X44	Y44	Z44	X45	Y45	Z45	X46	Y46	Z46	X47	Y47	Z47	X48	Y48	Z48	X49	Y49	Z49	X50	Y50	Z50	X51	Y51	Z51	

140	1.39000000	-452.78697	697.32946	-367.27628	-392.68889	595.14444	-361.83684	-412.07083	310.12280	-362.68513	-454.12291	287.48444	-421.89403	-314.04598	220.44255	-327.86148	-268.99726	235.10490	-362.29266	-431.97029	705.51470	-784.81904	-366.84271	611.16122	-754.57610	-409.83999	321.76398	-797.97093	-450.64917	303.07981	-745.83443	-311.86418	221.51170	-821.03169	-262.24873	231.03813	-773.99453	-380.92494	482.99207	-362.20578	-457.82833	585.96750	-324.37927	-458.37206	473.99638	-338.87996	-428.45367	630.09603	-817.19971	-419.88434	510.67353	-838.77892	-458.31931	1008.45570	-401.38702	-424.48213	904.20357	-388.41957	-461.48128	869.93053	-345.08982	-559.05159	974.29762	-365.57521	-517.10927	867.51899	-347.32247	-473.19808	1001.14325	-772.97972	-412.12663	874.87731	-778.15123	-574.78125	960.65791	-793.72815	-513.21384	831.89599	-796.99535	-447.91266	1125.49837	-456.69335	-610.31050	1212.69267	-522.27588	-450.07422	1132.03244	-699.76837	-614.63685	1217.33369	-635.08866	-449.01512	1637.00205	-556.73909	-388.36032	1604.84519	-418.70787	-377.58145	1624.73769	-691.97736	-337.31837	1556.96347	-532.11181	-336.90298	1553.19439	-574.46202	-385.23113	1492.70157	-337.15431	-499.37018	1309.53280	-321.74164	-455.22987	1325.37027	-263.17326	-392.79583	1211.15432	-244.25219	-353.39738	1116.98957	-240.21377	-376.40585	1110.85298	-210.70387	-358.41512	1504.58794	-790.60571	-453.70191	1323.85033	-836.43697	-415.57300	1355.06790	-889.53518	-359.56729	1273.95719	-923.89298	-324.92475	1149.13624	-950.73030	-338.65100	1151.31949	-974.06697	-551.50766	1078.87240	-482.44587	-549.34938	1079.24247	-671.81113	-532.74522	1076.31766	-489.49146	-538.89032	1082.90984	-649.73194	
141	1.40000000	-437.26379	678.16609	-366.16816	-376.23276	577.12185	-360.40453	-390.01144	291.15857	-361.10367	-430.99979	268.08453	-420.67241	-290.60019	203.02368	-325.74186	-245.53295	219.03088	-359.38737	-416.69063	686.50095	-786.06043	-349.12507	593.98030	-756.19897	-386.03957	303.81948	-799.21309	-426.07588	284.93036	-746.70185	-287.36497	204.35621	-823.09996	-237.51331	214.13076	-776.49270	-362.15890	465.19363	-360.26204	-441.53251	566.53167	-323.87959	-439.56009	454.63107	-338.03366	-411.40327	611.47180	-818.57251	-400.06647	492.32131	-840.32224	-446.35823	989.04859	-402.54597	-411.45819	885.28958	-389.68730	-447.75595	851.49425	-344.10485	-546.30959	954.27414	-365.12553	-503.12683	848.14455	-346.34479	-461.46558	981.55557	-773.02467	-399.24622	855.89788	-778.95502	-562.85923	939.84963	-793.88763	-499.78097	811.62821	-797.16301	-436.94854	1105.06129	-457.38427	-599.54537	1192.06386	-522.25773	-439.56357	1111.06926	-700.61631	-603.91534	1196.65315	-635.15807	-435.19074	1614.81141	-556.47735	-375.12501	1580.94082	-417.66259	-364.28539	1601.32142	-693.29940	-324.16935	1533.21078	-532.55781	-323.89860	1530.03265	-574.31001	-377.87026	1467.96595	-336.18759	-501.90977	1291.28844	-324.40464	-458.64773	1304.26483	-264.54083	-404.72340	1185.66734	-244.29840	-372.52560	1088.57266	-239.09284	-397.14384	1084.83932	-209.54714	-352.60086	1479.91782	-792.46890	-458.80377	1305.17401	-833.07560	-419.83952	1332.68582	-888.91069	-369.30027	1248.13914	-923.64782	-342.10922	1121.62369	-951.19374	-356.40162	1124.55146	-973.94331	-540.49264	1058.30469	-482.67886	-538.92506	1058.46940	-672.04971	-521.94105	1055.51945	-490.16333	-528.14735	1062.03710	-650.50265	
142	1.41000000	-420.86543	658.14657	-365.27979	-359.39617	557.88688	-359.00037	-369.33640	270.93449	-360.40456	-409.55659	247.96524	-419.49762	-269.05124	184.46303	-323.63997	-223.95873	201.27890	-356.69384	-401.00693	666.68595	-787.16763	-331.29536	575.68495	-757.78164	-363.54997	284.80151	-800.15285	-402.90718	265.68549	-747.38236	-264.11924	186.48231	-825.11634	-214.30797	196.40082	-779.04167	-343.66208	446.23775	-358.45882	-424.90533	546.32446	-323.32984	-421.16713	434.61965	-337.21342	-394.25899	591.77619	-819.64062	-380.79694	472.99063	-841.46908	-434.39654	968.15627	-403.82462	-397.53314	866.01081	-390.54037	-433.38205	832.28693	-343.24712	-533.58717	933.54942	-364.14058	-488.82697	828.37166	-344.97464	-449.23369	961.13492	-772.29599	-385.90711	836.10622	-779.78322	-550.75356	917.97461	-794.59331	-485.83389	790.60299	-798.28961	-425.73657	1083.66229	-458.08575	-588.88347	1170.30562	-522.40820	-429.12416	1089.08722	-701.22722	-593.32448	1174.83332	-635.05730	-421.43444	1591.55479	-556.28037	-362.19883	1555.74911	-416.82493	-351.10505	1576.64191	-694.72992	-311.28547	1508.02299	-532.89881	-311.00151	1505.84219	-574.19432	-370.93760	1442.46981	-334.97368	-504.09977	1272.53218	-327.33051	-461.86392	1282.67850	-266.28417	-416.94375	1160.14565	-244.95937	-394.10403	1059.69999	-239.59271	-417.63613	1059.62314	-209.34688	-346.61073	1454.34633	-794.11830	-463.03192	1284.86353	-830.32236	-423.99759	1310.18040	-888.13662	-379.22509	1222.30613	-922.85820	-359.51437	1094.21876	-949.68720	-374.42649	1097.71740	-973.11219	-529.33532	1036.69782	-482.80034	-528.44206	1036.56378	-672.17521	-510.92800	1033.66182	-490.77995	-517.24666	1040.10365	-651.05584	
143	1.42000000	-403.66512	637.37223	-364.51926	-341.93724	537.54548	-357.69191	-349.98181	250.07962	-359.27581	-389.78647	227.02796	-418.06662	-249.07634	164.63378	-321.79619	-203.98560	181.77630	-354.70333	-384.62829	646.12486	-788.13632	-313.26585	556.14793	-759.29505	-342.38938	264.72067	-800.84351	-380.99895	245.35807	-747.88437	-242.13609	167.55440	-827.21464	-192.28862	177.62233	-781.57855	-325.32335	426.05486	-357.13077	-407.69646	525.56992	-322.35997	-402.96017	414.00866	-336.16235	-377.02634	571.06394	-820.54674	-362.14027	452.54106	-842.11781	-422.54642	946.58637	-404.34669	-383.00547	846.20265	-390.61066	-418.36521	812.03349	-343.20149	-521.02440	911.85481	-363.02843	-474.06931	807.69728	-343.65189	-437.24570	939.67703	-772.07074	-372.00505	815.82769	-780.80808	-538.30441	894.86221	-795.23912	-471.18780	768.72928	-799.57369	-414.33128	1061.02832	-458.58837	-578.32137	1147.29734	-522.51481	-418.64735	1066.40704	-701.49060	-582.78695	1151.76300	-634.95033	-407.81685	1567.19369	-556.04880	-349.29841	1529.44639	-415.95993	-338.17905	1550.78367	-695.95667	-299.57732	1481.16525	-535.23975	-298.15306	1480.47594	-573.49183	-364.49255	1416.40029	-333.38834	-505.84391	1253.07515	-330.89381	-464.96419	1260.89209	-268.15233	-428.96578	1135.34108	-245.68235	-416.64748	1031.68902	-240.98200	-437.84520	1035.62064	-209.65645	-340.77160	1427.78566	-795.54217	-466.68532	1263.78419	-827.70091	-428.03890	1287.15077	-886.59002	-389.31390	1196.55490	-921.92918	-377.49326	1066.98386	-945.52893	-392.79718	1071.39907	-971.56058	-518.05394	1013.82420	-482.90554	-517.69930	1013.63213	-672.28322	-499.78490	1010.80485	-491.20465	-506.14471	1017.16460	-651.33236	
144	1.43000000	-385.57893	615.99727	-363.80983	-323.66846	516.17796	-356.69796	-331.87439	229.20349	-356.81867	-371.77077	205.41641	-416.33933	-230.53491	143.56289	-320.59332	-185.46485	160.70149	-353.78277	-367.44300	624.77299	-788.93132	-295.04036	535.41993	-760.80399	-322.39139	243.80498	-801.33908	-360.15582	224.42625	-748.06759	-221.72339	147.29014	-829.18116	-171.49906	157.47036	-783.83334	-307.07721	404.69883	-356.18868	-389.59367	504.26694	-321.22342	-384.74364	392.66637	-335.02423	-359.73964	549.44060	-821.42855	-343.94844	431.00169	-842.55759	-410.53618	924.78368	-404.12803	-368.50201	825.58114	-390.09295	-402.93770	790.40587	-343.82587	-508.17976	888.52526	-362.53038	-458.57799	785.20172	-343.22136	-425.61748	917.25707	-772.54871	-357.49028	795.17853	-781.90439	-524.87455	870.61561	-794.99367	-455.77208	745.96459	-800.54922	-403.12267	1037.06550	-458.95111	-567.82130	1122.93835	-522.59594	-407.92678	1042.99037	-701.45301	-572.26072	1127.35320	-635.11736	-394.49029	1541.66724	-555.74637	-336.52356	1502.23143	-414.80172	-325.61536	1523.86204	-696.95382	-289.40682	1452.71388	-540.54085	-285.38931	1453.36213	-573.09011	-358.15925	1389.58191	-332.11736	-506.97314	1232.94046	-335.13647	-467.84360	1238.87303	-270.27670	-440.32437	1112.04513	-246.16791	-436.16068	1006.80505	-240.43503	-458.24560	1012.81091	-210.54046	-336.17138	1400.42079	-796.87425	-470.07902	1242.72630	-824.50723	-431.89628	1263.47686	-884.15870	-399.59828	1170.83674	-921.21311	-396.17388	1040.55152	-941.43724	-411.48835	1046.11763	-969.72369	-506.83942	989.56280	-483.16993	-506.60259	989.64405	-672.54808	-488.63587	986.96163	-491.50499	-494.94434	993.23532	-651.38726	
145	1.44000000	-366.68413	593.92492	-363.18291	-304.68575	493.54970	-356.14285	-315.37518	207.47504	-354.51310	-355.85979	182.83612	-414.36331	-213.48443	121.51730	-320.00746	-168.77926	138.59050	-353.79526	-349.56675	602.63841	-789.56471	-276.61034	513.52462	-762.41867	-303.36095	222.05476	-802.01591	-340.74515	202.81932	-747.97801	-203.24650	125.68959	-830.61954	-152.55662	136.13164	-785.86451	-288.93958	382.00146	-355.39573	-370.48939	482.21172	-320.25255	-366.53691	370.34648	-333.96201	-342.23486	527.06147	-822.28549	-326.04720	408.57931	-843.23730	-398.14652	902.33250	-403.93642	-354.23648	803.84397	-389.57255	-387.49534	767.40054	-344.14473	-494.58819	863.30753	-362.84914	-442.69385	760.92490	-343.60085	-413.55794	894.07896	-772.96150	-342.41812	773.89626	-782.76049	-510.69061	845.49814	-794.27526	-439.55207	722.36233	-801.30124	-392.39172	1011.47001	-459.41343	-557.39755	1097.31844	-522.88327	-396.88283	1018.41947	-701.19141	-561.82127	1101.73028	-635.47740	-381.47603	1514.96705	-555.43142	-324.17123	1474.08156	-413.53539	-313.46410	1495.86725	-697.93065	-279.30757	1423.49531	-545.43283	-272.87492	1424.33635	-573.66529	-351.66890	1361.86012	-331.70011	-507.49517	1212.38889	-339.53098	-470.22988	1216.34713	-272.98514	-451.70208	1088.99693	-247.34330	-453.04357	984.42999	-238.59954	-478.74885	990.84452	-212.44696	-332.64898	1372.39947	-798.06498	-473.12641	1221.27113	-820.76730	-435.51847	1239.38785	-881.21076	-409.90312	1145.15583	-920.19324	-414.72423	1014.97426	-938.97987	-430.43570	1021.64847	-967.34208	-496.02303	963.83254	-483.71881	-495.41209	964.52078	-673.09300	-477.66531	962.01950	-491.84646	-483.92862	968.26626	-651.26914	
